<?xml version="1.0" encoding="utf-8"?>
<!-- Generator: Adobe Illustrator 23.0.6, SVG Export Plug-In . SVG Version: 6.00 Build 0)  -->
<svg version="1.1" id="Layer_1" xmlns="http://www.w3.org/2000/svg" xmlns:xlink="http://www.w3.org/1999/xlink" x="0px" y="0px"
	 viewBox="0 0 612 792" style="enable-background:new 0 0 612 792;" xml:space="preserve">
<style type="text/css">
	.st0{fill:#FFFFFF;}
</style>
<g>
	<path class="st0" d="M138.46,245.34v100.95c0,12.4-1.31,22-3.95,28.8c-2.63,6.81-6.8,11.99-12.52,15.56
		c-5.71,3.57-12.41,5.35-20.11,5.35c-11.42,0-20.17-3.74-26.23-11.21c-6.07-7.48-8.99-18.6-8.75-33.35l15.54-2.43
		c0.41,11.32,2.28,19.06,5.59,23.24c3.32,4.18,7.9,6.27,13.76,6.27c4.32,0,8.05-1.12,11.19-3.39c3.14-2.26,5.3-5.32,6.48-9.19
		c1.19-3.88,1.78-10.06,1.78-18.54V245.34H138.46z"/>
	<path class="st0" d="M145.88,393.8h21.66l17.23-30.82c5.03-8.89,9.17-15.69,12.43-20.41c3.25-4.71,6.17-8.02,8.74-9.9
		c2.58-1.88,5.2-3.19,7.86-3.94c1.95-0.47,5.15-0.71,9.59-0.71h19.98v65.78h17.22V245.66h-57.71c-11.6,0-20.42,1.33-26.46,3.99
		c-6.04,2.66-10.86,7.36-14.47,14.1c-3.61,6.73-5.42,14.18-5.42,22.33c0,10.51,2.99,19.37,8.97,26.57
		c5.98,7.21,15.21,11.79,27.7,13.75c-4.56,2.49-8.02,4.95-10.39,7.37c-5.03,5.26-9.79,11.82-14.29,19.71L145.88,393.8z
		 M187.87,308.26c-4.43-1.85-7.81-4.82-10.12-8.89c-2.31-4.07-3.46-8.51-3.46-13.29c0-7.01,2.24-12.77,6.7-17.28
		c4.47-4.51,11.53-6.77,21.18-6.77h41.2v49h-37.03C198.47,311.03,192.31,310.11,187.87,308.26z"/>
	<path class="st0" d="M367.61,245.34v148.14h-16.6V269.49l-37.83,123.98h-15.53L260,267.37v126.11h-16.6V245.34h25.92l30.81,104.88
		c2.84,9.77,4.92,17.08,6.22,21.93c1.48-5.39,3.79-13.3,6.92-23.75l31.17-103.07H367.61z"/>
	<path class="st0" d="M493.16,351.64c0,7.88-1.98,15.32-5.95,22.28c-3.96,6.98-9.66,12.4-17.09,16.27
		c-7.43,3.87-15.79,5.81-25.08,5.81c-11.78,0-21.65-1.95-29.61-5.85c-7.97-3.91-14.21-9.79-18.74-17.64
		c-4.53-7.85-6.91-16.72-7.15-26.63l16.25-1.61c0.77,7.41,2.56,13.49,5.37,18.24c2.82,4.75,7.18,8.58,13.1,11.52
		c5.92,2.93,12.58,4.39,19.98,4.39c6.57,0,12.37-1.1,17.4-3.33c5.03-2.22,8.78-5.27,11.23-9.14c2.46-3.88,3.69-8.1,3.69-12.68
		c0-4.65-1.19-8.72-3.55-12.18c-2.37-3.47-6.28-6.38-11.72-8.74c-3.5-1.55-11.22-3.96-23.18-7.22c-11.96-3.27-20.33-6.35-25.13-9.24
		c-6.21-3.7-10.84-8.3-13.89-13.8c-3.05-5.49-4.57-11.63-4.57-18.44c0-7.48,1.86-14.47,5.59-20.97c3.73-6.5,9.17-11.43,16.34-14.8
		c7.16-3.37,15.12-5.05,23.88-5.05c9.65,0,18.16,1.77,25.53,5.3c7.37,3.54,13.04,8.74,17,15.62c3.97,6.87,6.1,14.65,6.39,23.34
		l-16.51,1.42c-0.89-9.37-3.89-16.44-9.01-21.23c-5.12-4.78-12.69-7.17-22.69-7.17c-10.42,0-18.01,2.17-22.77,6.52
		c-4.77,4.34-7.15,9.58-7.15,15.71c0,5.33,1.69,9.7,5.06,13.13c3.32,3.44,11.97,6.96,25.97,10.56c14,3.61,23.6,6.76,28.81,9.45
		c7.58,3.98,13.17,9.01,16.78,15.11C491.35,336.67,493.16,343.7,493.16,351.64z"/>
</g>
</svg>
